<svg width="20" height="20" viewBox="0 0 20 20" fill="none" xmlns="http://www.w3.org/2000/svg">
<path d="M10 0C4.48 0 0 4.481 0 10C0 15.521 4.48 20 10 20C15.53 20 20 15.521 20 10C20 4.481 15.53 0 10 0Z" fill="#EB5757"/>
<path d="M10.0089 14.6797C9.51891 14.6797 9.12891 14.2797 9.12891 13.7997C9.12891 13.3197 9.51891 12.9297 9.99891 12.9297C10.4889 12.9297 10.8789 13.3197 10.8789 13.7997C10.8789 14.2797 10.4889 14.6797 10.0089 14.6797Z" fill="white"/>
<path d="M9.12109 6.20812C9.12109 5.72912 9.52109 5.32812 10.0011 5.32812C10.4811 5.32812 10.8711 5.72912 10.8711 6.20812V10.6281C10.8711 11.1091 10.4811 11.4981 10.0011 11.4981C9.52109 11.4981 9.12109 11.1091 9.12109 10.6281V6.20812Z" fill="white"/>
</svg>
